<svg width="72" height="72" viewBox="0 0 72 72" fill="none" xmlns="http://www.w3.org/2000/svg">
<path fill-rule="evenodd" clip-rule="evenodd" d="M59.9971 25C64.2772 25 68.2083 26.4938 71.2975 28.9884C68.0501 13.0185 53.9286 1 37 1C17.67 1 2 16.67 2 36C2 37.377 2.07952 38.7354 2.23421 40.0708C3.63312 31.5228 11.0533 24.9999 19.9971 24.9999C23.6974 24.9999 27.1369 26.1165 29.9971 28.031V11.9999H37.9971V42.9999V60.9999H29.9971V57.9688C27.1369 59.8834 23.6974 60.9999 19.9971 60.9999C16.0564 60.9999 12.4115 59.7336 9.44705 57.5857C15.8544 65.7528 25.8144 71 37 71C46.571 71 55.2447 67.1583 61.5633 60.9328C61.0471 60.9773 60.5248 61 59.9971 61C50.0557 61 41.9971 52.9412 41.9971 43C41.9971 33.0588 50.0557 25 59.9971 25ZM59.9971 54C64.5995 54 68.5417 51.1734 70.1826 47.1616C70.3976 46.522 70.5947 45.8742 70.7732 45.2187C70.92 44.5021 70.9971 43.76 70.9971 43C70.9971 36.9249 66.0723 32 59.9971 32C53.9219 32 48.9971 36.9249 48.9971 43C48.9971 49.0751 53.9219 54 59.9971 54ZM30.9971 43C30.9971 49.0751 26.0722 54 19.9971 54C13.9219 54 8.99708 49.0751 8.99708 43C8.99708 36.9249 13.9219 32 19.9971 32C26.0722 32 30.9971 36.9249 30.9971 43Z" fill="#808CFF"/>
</svg>
