<svg width="72" height="72" viewBox="0 0 72 72" fill="none" xmlns="http://www.w3.org/2000/svg">
<mask id="path-1-inside-1_543_118" fill="white">
<path fill-rule="evenodd" clip-rule="evenodd" d="M59.9971 25C64.2771 25 68.2082 26.4938 71.2975 28.9885C68.0502 13.0186 53.9287 1 37 1C17.67 1 2 16.67 2 36C2 37.377 2.07952 38.7354 2.23421 40.0708C3.63312 31.5228 11.0533 24.9999 19.9971 24.9999C23.6974 24.9999 27.1369 26.1165 29.9971 28.031V11.9999H37.9971V42.9999V60.9999H29.9971V57.9688C27.1369 59.8834 23.6974 60.9999 19.9971 60.9999C16.0564 60.9999 12.4115 59.7336 9.44705 57.5857C15.8544 65.7528 25.8144 71 37 71C46.571 71 55.2447 67.1583 61.5633 60.9328C61.0471 60.9773 60.5248 61 59.9971 61C50.0559 61 41.9971 52.9411 41.9971 43C41.9971 33.0589 50.0559 25 59.9971 25ZM59.9971 54C64.5995 54 68.5417 51.1735 70.1826 47.1616C70.3976 46.522 70.5947 45.8742 70.7732 45.2187C70.92 44.5021 70.9971 43.76 70.9971 43C70.9971 36.9249 66.0722 32 59.9971 32C53.9219 32 48.9971 36.9249 48.9971 43C48.9971 49.0751 53.9219 54 59.9971 54ZM30.9971 43C30.9971 49.0751 26.0722 54 19.9971 54C13.9219 54 8.99708 49.0751 8.99708 43C8.99708 36.9249 13.9219 32 19.9971 32C26.0722 32 30.9971 36.9249 30.9971 43Z"/>
</mask>
<path fill-rule="evenodd" clip-rule="evenodd" d="M59.9971 25C64.2771 25 68.2082 26.4938 71.2975 28.9885C68.0502 13.0186 53.9287 1 37 1C17.67 1 2 16.67 2 36C2 37.377 2.07952 38.7354 2.23421 40.0708C3.63312 31.5228 11.0533 24.9999 19.9971 24.9999C23.6974 24.9999 27.1369 26.1165 29.9971 28.031V11.9999H37.9971V42.9999V60.9999H29.9971V57.9688C27.1369 59.8834 23.6974 60.9999 19.9971 60.9999C16.0564 60.9999 12.4115 59.7336 9.44705 57.5857C15.8544 65.7528 25.8144 71 37 71C46.571 71 55.2447 67.1583 61.5633 60.9328C61.0471 60.9773 60.5248 61 59.9971 61C50.0559 61 41.9971 52.9411 41.9971 43C41.9971 33.0589 50.0559 25 59.9971 25ZM59.9971 54C64.5995 54 68.5417 51.1735 70.1826 47.1616C70.3976 46.522 70.5947 45.8742 70.7732 45.2187C70.92 44.5021 70.9971 43.76 70.9971 43C70.9971 36.9249 66.0722 32 59.9971 32C53.9219 32 48.9971 36.9249 48.9971 43C48.9971 49.0751 53.9219 54 59.9971 54ZM30.9971 43C30.9971 49.0751 26.0722 54 19.9971 54C13.9219 54 8.99708 49.0751 8.99708 43C8.99708 36.9249 13.9219 32 19.9971 32C26.0722 32 30.9971 36.9249 30.9971 43Z" fill="black"/>
<path d="M71.2975 28.9885L70.6693 29.7665L72.8312 31.5123L72.2775 28.7893L71.2975 28.9885ZM2.23421 40.0708L1.24085 40.1859L3.22108 40.2323L2.23421 40.0708ZM29.9971 28.031L29.4408 28.862L30.9971 29.9038V28.031H29.9971ZM29.9971 11.9999V10.9999H28.9971V11.9999H29.9971ZM37.9971 11.9999H38.9971V10.9999H37.9971V11.9999ZM37.9971 60.9999V61.9999H38.9971V60.9999H37.9971ZM29.9971 60.9999H28.9971V61.9999H29.9971V60.9999ZM29.9971 57.9688H30.9971V56.0961L29.4408 57.1378L29.9971 57.9688ZM9.44705 57.5857L10.0338 56.7759L8.66027 58.2029L9.44705 57.5857ZM61.5633 60.9328L62.2651 61.6451L64.2411 59.6983L61.4774 59.9365L61.5633 60.9328ZM70.1826 47.1616L71.1082 47.5402L71.1202 47.5106L71.1304 47.4803L70.1826 47.1616ZM70.7732 45.2187L71.7381 45.4815L71.7465 45.4507L71.7529 45.4194L70.7732 45.2187ZM71.9258 28.2105C68.6651 25.5774 64.5139 24 59.9971 24V26C64.0403 26 67.7514 27.4102 70.6693 29.7665L71.9258 28.2105ZM37 2C53.4438 2 67.1631 13.6745 70.3176 29.1878L72.2775 28.7893C68.9373 12.3626 54.4135 0 37 0V2ZM3 36C3 17.2223 18.2223 2 37 2V0C17.1177 0 1 16.1177 1 36H3ZM3.22756 39.9558C3.07729 38.6584 3 37.3384 3 36H1C1 37.4155 1.08174 38.8123 1.24085 40.1859L3.22756 39.9558ZM3.22108 40.2323C4.54215 32.16 11.5512 25.9999 19.9971 25.9999V23.9999C10.5555 23.9999 2.7241 30.8857 1.24733 39.9093L3.22108 40.2323ZM19.9971 25.9999C23.4932 25.9999 26.7401 27.0542 29.4408 28.862L30.5533 27.2C27.5337 25.1787 23.9015 23.9999 19.9971 23.9999V25.9999ZM30.9971 28.031V11.9999H28.9971V28.031H30.9971ZM29.9971 12.9999H37.9971V10.9999H29.9971V12.9999ZM36.9971 11.9999V42.9999H38.9971V11.9999H36.9971ZM36.9971 42.9999V60.9999H38.9971V42.9999H36.9971ZM37.9971 59.9999H29.9971V61.9999H37.9971V59.9999ZM30.9971 60.9999V57.9688H28.9971V60.9999H30.9971ZM29.4408 57.1378C26.7401 58.9456 23.4932 59.9999 19.9971 59.9999V61.9999C23.9015 61.9999 27.5337 60.8211 30.5533 58.7998L29.4408 57.1378ZM19.9971 59.9999C16.2741 59.9999 12.8333 58.8043 10.0338 56.7759L8.86031 58.3954C11.9897 60.6629 15.8387 61.9999 19.9971 61.9999V59.9999ZM37 70C26.1345 70 16.4597 64.9044 10.2338 56.9684L8.66027 58.2029C15.249 66.6013 25.4943 72 37 72V70ZM60.8615 60.2205C54.7224 66.2691 46.2979 70 37 70V72C46.8441 72 55.7671 68.0475 62.2651 61.6451L60.8615 60.2205ZM59.9971 62C60.5535 62 61.1045 61.9761 61.6492 61.9291L61.4774 59.9365C60.9898 59.9785 60.4961 60 59.9971 60V62ZM40.9971 43C40.9971 53.4934 49.5037 62 59.9971 62V60C50.6082 60 42.9971 52.3888 42.9971 43H40.9971ZM59.9971 24C49.5037 24 40.9971 32.5066 40.9971 43H42.9971C42.9971 33.6112 50.6082 26 59.9971 26V24ZM69.257 46.7831C67.7645 50.4321 64.1795 53 59.9971 53V55C65.0194 55 69.3189 51.9149 71.1082 47.5402L69.257 46.7831ZM69.8083 44.956C69.635 45.5926 69.4436 46.2218 69.2347 46.8429L71.1304 47.4803C71.3517 46.8223 71.5544 46.1558 71.7381 45.4815L69.8083 44.956ZM69.9971 43C69.9971 43.6922 69.9269 44.3671 69.7935 45.0181L71.7529 45.4194C71.9131 44.6371 71.9971 43.8278 71.9971 43H69.9971ZM59.9971 33C65.5199 33 69.9971 37.4772 69.9971 43H71.9971C71.9971 36.3726 66.6245 31 59.9971 31V33ZM49.9971 43C49.9971 37.4772 54.4742 33 59.9971 33V31C53.3697 31 47.9971 36.3726 47.9971 43H49.9971ZM59.9971 53C54.4742 53 49.9971 48.5228 49.9971 43H47.9971C47.9971 49.6274 53.3697 55 59.9971 55V53ZM19.9971 55C26.6245 55 31.9971 49.6274 31.9971 43H29.9971C29.9971 48.5228 25.5199 53 19.9971 53V55ZM7.99708 43C7.99708 49.6274 13.3697 55 19.9971 55V53C14.4742 53 9.99708 48.5228 9.99708 43H7.99708ZM19.9971 31C13.3697 31 7.99708 36.3726 7.99708 43H9.99708C9.99708 37.4771 14.4742 33 19.9971 33V31ZM31.9971 43C31.9971 36.3726 26.6245 31 19.9971 31V33C25.5199 33 29.9971 37.4771 29.9971 43H31.9971Z" fill="#353535" mask="url(#path-1-inside-1_543_118)"/>
</svg>
